# xmcd CD database file
#
# Track frame offsets:
#	150
#	17069
#	30017
#	46027
#	59115
#	69829
#	98610
#	109575
#	123680
#	140130
#	150440
#	178538
#	196628
#	207968
#	219571
#	231445
#
# Disc length: 3252 seconds
#
# Revision: 1
# Processed by: cddbd v1.5.1PL0 Copyright (c) Steve Scherf et al.
# Submitted via: CDex 1.51
#
DISCID=d40cb210
DTITLE=Tom Ball - Source Book of Little Walter/Big Walter Licks for Blues Harmonica
DYEAR=2000
DGENRE=Blues
TTITLE0=Introduction
TTITLE1=Little Walter: A Few Intro Licks
TTITLE2=Little Walter: Slow and/or Easy Licks
TTITLE3=Little Walter: Licks That Rely Primarily On Amplification
TTITLE4=Little Walter: A Few Endings
TTITLE5=Little Walter: A Few Fast and/or Tricky Licks
TTITLE6=Big Walter: A Few Intro Licks
TTITLE7=Big Walter: Slow and/or Easy Licks
TTITLE8=Big Walter: Licks That Rely Primarily On Amplification
TTITLE9=Big Walter: A Few Endings
TTITLE10=Big Walter: A Few Fast and/or Tricky Licks
TTITLE11=Sloppy Joe
TTITLE12=Bonus Track 1: Little Walter J with Othum Brown 1947
TTITLE13=Bonus Track 2: Memphis Jug Band 1927 (is it Big Walter?)
TTITLE14=Bonus Track 3: Little Buddy Doyle w/ Big Walter 1939
TTITLE15=Bonus Track 4: Salty Holmes talking harmonica
EXTD=YEAR: 2000
EXTT0=
EXTT1=
EXTT2=
EXTT3=
EXTT4=
EXTT5=
EXTT6=
EXTT7=
EXTT8=
EXTT9=
EXTT10=
EXTT11=
EXTT12=
EXTT13=
EXTT14=
EXTT15=
PLAYORDER=
